<svg width="24" height="24" viewBox="0 0 24 24" fill="none" xmlns="http://www.w3.org/2000/svg">
<path d="M5.93869 4.53995L21.4096 11.2907L18.2319 18.5294L2.76093 11.7786L5.93869 4.53995Z" fill="#008849"/>
<path d="M5.93875 4.53995L21.4097 11.2907L18.2319 18.5294L2.76099 11.7786L5.93875 4.53995Z" fill="#006134"/>
<mask id="mask0_169_767" style="mask-type:luminance" maskUnits="userSpaceOnUse" x="2" y="4" width="20" height="15">
<path d="M5.93875 4.53995L21.4097 11.2907L18.2319 18.5294L2.76099 11.7786L5.93875 4.53995Z" fill="white"/>
</mask>
<g mask="url(#mask0_169_767)">
</g>
<rect x="3.11188" y="7.31461" width="16.8825" height="7.90415" transform="rotate(15 3.11188 7.31461)" fill="#008849"/>
<path d="M18.0772 13.6158L17.177 16.9751C16.4573 16.7822 15.709 17.2412 15.5057 18.0002L3.34311 14.7413C3.54648 13.9823 3.12792 13.2106 2.40822 13.0178L3.30835 9.65847C4.02805 9.85131 4.77634 9.39238 4.9797 8.63341L17.1423 11.8924C16.9389 12.6513 17.3574 13.4229 18.0772 13.6158Z" fill="#ECF8CC"/>
<path d="M12.0887 13.8114C11.7046 15.2451 10.4977 16.1673 9.39318 15.8714C8.28865 15.5754 7.70466 14.1733 8.08881 12.7396C8.47296 11.306 9.67975 10.3837 10.7843 10.6797C11.4478 10.8575 11.9235 11.4344 12.1143 12.1775C12.2411 12.6715 12.2421 13.239 12.0887 13.8114Z" fill="#008849"/>
</svg>
