<svg width="24" height="24" viewBox="0 0 24 24" fill="none" xmlns="http://www.w3.org/2000/svg">
<rect x="2.45453" y="10.3238" width="18.3637" height="9.11369" rx="2.45455" fill="#006134"/>
<rect x="1" y="8.97028" width="18.3637" height="9.11369" rx="2.45455" fill="#ECF8CC"/>
<path fill-rule="evenodd" clip-rule="evenodd" d="M5.88043 12.5544L6.16211 13.049L5.33876 13.5006L6.16211 13.9522L5.88043 14.4398L5.04264 13.9522L5.04982 14.8771H4.50088L4.50814 13.9594L3.67753 14.4398L3.38867 13.9522L4.21929 13.5006L3.38867 13.049L3.67753 12.5544L4.50814 13.0418L4.50088 12.1242H5.04982L5.04264 13.049L5.88043 12.5544ZM9.48713 12.5544L9.76882 13.049L8.94546 13.5006L9.76882 13.9522L9.48713 14.4398L8.64934 13.9522L8.65652 14.8771H8.10759L8.11485 13.9594L7.28423 14.4398L6.99538 13.9522L7.82599 13.5006L6.99538 13.049L7.28423 12.5544L8.11485 13.0418L8.10759 12.1242H8.65652L8.64934 13.049L9.48713 12.5544ZM13.3754 13.049L13.0938 12.5544L12.256 13.049L12.2632 12.1242H11.7143L11.7215 13.0418L10.8909 12.5544L10.6021 13.049L11.4326 13.5006L10.6021 13.9522L10.8909 14.4398L11.7215 13.9594L11.7143 14.8771H12.2632L12.256 13.9522L13.0938 14.4398L13.3754 13.9522L12.5521 13.5006L13.3754 13.049ZM16.7005 12.5544L16.9821 13.049L16.1588 13.5006L16.9821 13.9522L16.7005 14.4398L15.8627 13.9522L15.8699 14.8771H15.321L15.3283 13.9594L14.4976 14.4398L14.2088 13.9522L15.0393 13.5006L14.2088 13.049L14.4976 12.5544L15.3283 13.0418L15.321 12.1242H15.8699L15.8627 13.049L16.7005 12.5544Z" fill="#004318"/>
<ellipse cx="18.3727" cy="8.60036" rx="3.62729" ry="3.60036" fill="#008849"/>
<path d="M16.8715 8.67455L17.9628 9.75776L20.2546 7.48302" stroke="#ECF8CC" stroke-width="0.363637" stroke-linecap="round" stroke-linejoin="round"/>
</svg>
