<svg width="24" height="24" viewBox="0 0 24 24" fill="none" xmlns="http://www.w3.org/2000/svg">
<path d="M1.07138 14.4552C1.55954 20.0273 7.8395 21.0011 12.5862 20.5153C17.3329 20.0296 23.0295 17.1382 21.8406 11.1207C20.7311 5.50477 17.7699 4.31979 10.1348 4.01301C2.49149 3.70591 0.583217 8.88311 1.07138 14.4552Z" fill="#ECF8CC"/>
<path d="M5.49737 9.35497C5.55796 9.25542 5.70389 9.25547 5.76446 9.35497L6.48849 10.5447C6.53202 10.6162 6.60301 10.6672 6.68521 10.686L8.05339 10.9994C8.16784 11.0257 8.21295 11.1629 8.13593 11.2506L7.21515 12.299C7.15984 12.362 7.13272 12.4445 7.13999 12.5277L7.26127 13.911C7.27142 14.0267 7.15335 14.1115 7.04521 14.0661L5.7521 13.5244C5.67438 13.4918 5.58663 13.4918 5.5089 13.5244L4.21571 14.0659C4.10753 14.1112 3.98947 14.0263 3.99964 13.9106L4.1212 12.5274C4.12851 12.4443 4.1014 12.3617 4.04607 12.2987L3.12555 11.2501C3.04855 11.1624 3.09365 11.0252 3.20811 10.999L4.57633 10.6858C4.65856 10.667 4.72956 10.616 4.7731 10.5445L5.49737 9.35497Z" fill="#008849"/>
<path d="M11.4384 9.35497C11.4991 9.25542 11.645 9.25547 11.7056 9.35497L12.4296 10.5447C12.4731 10.6162 12.5441 10.6672 12.6264 10.686L13.9945 10.9994C14.1089 11.0257 14.154 11.1629 14.077 11.2506L13.1562 12.299C13.1009 12.362 13.0738 12.4445 13.0811 12.5277L13.2024 13.911C13.2125 14.0267 13.0944 14.1115 12.9863 14.0661L11.6932 13.5244C11.6155 13.4918 11.5277 13.4918 11.45 13.5244L10.1568 14.0659C10.0486 14.1112 9.93055 14.0263 9.94076 13.9106L10.0623 12.5274C10.0696 12.4443 10.0425 12.3617 9.98716 12.2987L9.06666 11.2501C8.98964 11.1624 9.03475 11.0252 9.14921 10.999L10.5174 10.6858C10.5996 10.667 10.6707 10.616 10.7142 10.5445L11.4384 9.35497Z" fill="#008849"/>
<path d="M17.3575 9.38457C17.4181 9.28507 17.564 9.28507 17.6246 9.38457L18.3486 10.5743C18.3921 10.6458 18.4632 10.6968 18.5454 10.7156L19.9135 11.0291C20.028 11.0553 20.073 11.1925 19.996 11.2802L19.0753 12.3286C19.0199 12.3916 18.9928 12.4741 19.0001 12.5573L19.1214 13.9406C19.1316 14.0563 19.0135 14.1411 18.9053 14.0957L17.6122 13.554C17.5345 13.5214 17.4468 13.5214 17.369 13.554L16.0758 14.0955C15.9677 14.1408 15.8496 14.0559 15.8598 13.9402L15.9813 12.557C15.9887 12.4739 15.9615 12.3914 15.9062 12.3283L14.9857 11.2797C14.9086 11.192 14.9538 11.0548 15.0682 11.0286L16.4364 10.7154C16.5187 10.6966 16.5897 10.6456 16.6332 10.5741L17.3575 9.38457Z" fill="#008849"/>
</svg>
